<?xml version="1.0" encoding="utf-8"?>
<!-- Generator: Adobe Illustrator 18.0.0, SVG Export Plug-In . SVG Version: 6.00 Build 0)  -->
<!DOCTYPE svg PUBLIC "-//W3C//DTD SVG 1.1//EN" "http://www.w3.org/Graphics/SVG/1.1/DTD/svg11.dtd">
<svg version="1.1" id="Capa_1" xmlns="http://www.w3.org/2000/svg" xmlns:xlink="http://www.w3.org/1999/xlink" x="0px" y="0px"
	 viewBox="0 992.1 850.4 851.8" enable-background="new 0 992.1 850.4 851.8" xml:space="preserve">
<g>
	<path fill="#FFFFFF" d="M804.2,992.1H47.6c-26.6,0-47.6,21-47.6,47.6v756.5c0,26.6,21,47.6,47.6,47.6h407.7v-330.6H344.6v-128.9
		h110.7v-95.3c0-109.3,67.2-169.5,165.3-169.5c47.6,0,86.9,4.2,99.5,5.6v114.9h-68.6c-53.2,0-63,25.2-63,63v81.3h126.1l-16.8,128.9
		H587v329.2h217.2c26.6,0,47.6-21,47.6-47.6v-756.5C850.4,1013.1,829.4,992.1,804.2,992.1z"/>
</g>
</svg>
