<?xml version="1.0" encoding="utf-8"?>
<!-- Generator: Adobe Illustrator 18.0.0, SVG Export Plug-In . SVG Version: 6.00 Build 0)  -->
<!DOCTYPE svg PUBLIC "-//W3C//DTD SVG 1.1//EN" "http://www.w3.org/Graphics/SVG/1.1/DTD/svg11.dtd">
<svg version="1.1" id="Layer_1" xmlns="http://www.w3.org/2000/svg" xmlns:xlink="http://www.w3.org/1999/xlink" x="0px" y="0px"
	 viewBox="0 992.1 850.4 850.4" enable-background="new 0 992.1 850.4 850.4" xml:space="preserve">
<g>
	<path fill="#FFFFFF" d="M708.7,992.1h-567C63.3,992.1,0,1055.4,0,1133.8v567c0,78.4,63.3,141.7,141.7,141.7h567
		c78.4,0,141.7-63.3,141.7-141.7v-567C850.4,1055.4,787.1,992.1,708.7,992.1z M755.8,1700.8c0,26.6-20.9,47.3-47.3,47.3H141.7
		c-26.6,0-47.3-20.9-47.3-47.3V1370h148.4c-3.9,15.1-6.7,31.1-6.7,47.3c0,104,85.1,189,189,189s189.1-85,189.1-189
		c0-16-1.9-32-6.7-47.3H756v330.7h-0.1L755.8,1700.8L755.8,1700.8z M330.6,1417.3c0-51.9,42.6-94.4,94.4-94.4s94.4,42.6,94.4,94.4
		s-42.6,94.4-94.4,94.4S330.6,1469.3,330.6,1417.3z M755.8,1275.5H550c-33-29.4-76.6-47.3-124.7-47.3s-91.6,18-124.7,47.3H94.4
		v-141.7c0-26.6,20.9-47.3,47.3-47.3h567c26.6,0,47.3,20.9,47.3,47.3L755.8,1275.5L755.8,1275.5z"/>
	<rect x="612.7" y="1135.8" fill="#FFFFFF" width="94.4" height="94.4"/>
</g>
</svg>
