<?xml version="1.0" encoding="utf-8"?>
<!-- Generator: Adobe Illustrator 21.0.2, SVG Export Plug-In . SVG Version: 6.00 Build 0)  -->
<svg version="1.1" id="Layer_1" xmlns="http://www.w3.org/2000/svg" xmlns:xlink="http://www.w3.org/1999/xlink" x="0px" y="0px"
	 viewBox="0 0 595.3 595.3" style="enable-background:new 0 0 595.3 595.3;" xml:space="preserve">
<style type="text/css">
	.st0{fill:#333333;}
</style>
<g>
	<path class="st0" d="M496.1,0H99.2C44.3,0,0,44.3,0,99.2v396.9c0,54.9,44.3,99.2,99.2,99.2h396.9c54.9,0,99.2-44.3,99.2-99.2V99.2
		C595.3,44.3,551,0,496.1,0z M529.1,496.1c0,18.6-14.6,33.1-33.1,33.1H99.2c-18.6,0-33.1-14.6-33.1-33.1V264.5H170
		c-2.7,10.6-4.7,21.8-4.7,33.1c0,72.8,59.6,132.3,132.3,132.3S430,370.4,430,297.6c0-11.2-1.3-22.4-4.7-33.1h103.9V496h-0.1V496.1z
		 M231.4,297.6c0-36.3,29.8-66.1,66.1-66.1s66.1,29.8,66.1,66.1s-29.8,66.1-66.1,66.1S231.4,334,231.4,297.6z M529.1,198.4H385
		c-23.1-20.6-53.6-33.1-87.3-33.1s-64.1,12.6-87.3,33.1H66.1V99.2c0-18.6,14.6-33.1,33.1-33.1h396.9c18.6,0,33.1,14.6,33.1,33.1
		L529.1,198.4L529.1,198.4z"/>
	<rect x="428.9" y="100.6" class="st0" width="66.1" height="66.1"/>
</g>
</svg>
