<?xml version="1.0" encoding="utf-8"?>
<!-- Generator: Adobe Illustrator 18.0.0, SVG Export Plug-In . SVG Version: 6.00 Build 0)  -->
<!DOCTYPE svg PUBLIC "-//W3C//DTD SVG 1.1//EN" "http://www.w3.org/Graphics/SVG/1.1/DTD/svg11.dtd">
<svg version="1.1" id="Layer_1" xmlns="http://www.w3.org/2000/svg" xmlns:xlink="http://www.w3.org/1999/xlink" x="0px" y="0px"
	 viewBox="0 0 2392.8 1452.1" enable-background="new 0 0 2392.8 1452.1" xml:space="preserve">
<g>
	<g>
		<path fill="#6F898E" d="M529.9,314.7c-82.4,0-160-60.9-160-157.6C369.9,61.4,447.5,0,529.9,0s160,61.4,160,157.1
			C689.9,253.8,612.3,314.7,529.9,314.7z M529.9,34.8c-61.4,0-120.5,46.7-120.5,123.3c0,76.7,59,123.8,120.5,123.8
			c60.5,0,120.5-47.1,120.5-123.8C650.4,81.4,590.4,34.8,529.9,34.8z"/>
		<path fill="#6F898E" d="M2232.8,314.7c-82.4,0-160-60.9-160-157.6c0-95.7,77.6-157.1,160-157.1c82.4,0,160,61.4,160,157.1
			C2392.8,253.8,2315.2,314.7,2232.8,314.7z M2232.8,34.8c-61.4,0-120.5,46.7-120.5,123.3c0,76.7,59,123.8,120.5,123.8
			c60.5,0,120.5-47.1,120.5-123.8C2353.3,81.4,2293.3,34.8,2232.8,34.8z"/>
		<path fill="#6F898E" d="M1911.1,886c-82.4,0-160-60.9-160-157.6c0-95.7,77.6-157.1,160-157.1c82.4,0,160,61.4,160,157.1
			C2071,825.1,1993.4,886,1911.1,886z M1911.1,606.1c-61.4,0-120.5,46.7-120.5,123.3c0,76.7,59,123.8,120.5,123.8
			c60.5,0,120.5-47.1,120.5-123.8C2031.5,652.7,1971.5,606.1,1911.1,606.1z"/>
		<path fill="#6F898E" d="M429,1457.3c-82.4,0-160-60.9-160-157.6c0-95.7,77.6-157.1,160-157.1s160,61.4,160,157.1
			C589,1396.4,511.3,1457.3,429,1457.3z M429,1177.4c-61.4,0-120.5,46.7-120.5,123.3c0,76.7,59,123.8,120.5,123.8
			c60.5,0,120.5-47.1,120.5-123.8C549.4,1224,489.4,1177.4,429,1177.4z"/>
	</g>
	<g>
		<path fill="#FFFFFF" d="M164.7,314.7C81.4,314.7,0,257.6,0,157.6C0,55.7,83.8,0,162.4,0c40.5,0,73.8,9.5,96.7,23.8l-7.6,34.8
			c-21.9-13.8-52.4-23.8-84.8-23.8c-64.3,0-127.1,43.8-127.1,123.8c0,79.5,61.4,123.3,127.6,123.3c31,0,55.7-7.1,71.4-18.1v-73.3
			h-75.2V159h112.4v123.3C246.6,304.7,210.5,314.7,164.7,314.7z"/>
		<path fill="#FFFFFF" d="M1045.5,315.2L899.8,152.8C876,126.2,848.9,94.3,827.9,69l-1,0.5c1,27.6,1,54.8,1,80v160h-39V5.7H816
			l135.7,151.9c19,21.4,46.7,52.9,66.2,77.1l1-0.5c-1-25.2-1-51.9-1-75.7V5.7h39v309.5H1045.5z"/>
		<path fill="#FFFFFF" d="M1397.3,56.2c-16.2-10.5-46.2-20.5-77.6-20.5c-64.3,0-126.2,44.3-126.2,122.4
			c0,78.1,60.9,122.4,126.2,122.4c34.8,0,60-7.1,79.5-18.6l-3.8,34.8c-17.6,9.5-40.9,15.2-77.1,15.2l-3.3,11.9
			c21,0.5,45.2,18.6,45.2,46.7c0,31.9-26.2,47.6-50.9,47.6c-14.3,0-26.2-4.3-36.7-11.4l4.8-21.4c9.1,7.1,20.5,10.5,31.9,10.5
			c12.4,0,24.8-9,24.8-24.3c0-15.7-14.3-23.8-22.4-23.8c-13.8,0-16.7-8.1-14.8-16.2l5.2-20c-74.3-6.2-146.2-61.4-146.2-153.8
			c0-99,81.9-154.7,159.5-154.7c39.5,0,69.5,9,89,20L1397.3,56.2z"/>
		<path fill="#FFFFFF" d="M1711.5,309.5l-33.8-81.9h-123.3l-33.3,81.9h-38.6L1609.7,1.4h14.3l127.1,308.1H1711.5z M1631.1,112.4
			c-4.8-11.9-10-27.6-14.3-41.9h-1c-3.8,14.3-10,30-14.8,41.9l-33.3,83.8h96.7L1631.1,112.4z"/>
		<path fill="#FFFFFF" d="M1841.5,309.5V5.7h39v270h137.6v33.8H1841.5z"/>
		<path fill="#FFFFFF" d="M241.4,627.5C225.2,617,195.2,607,163.8,607c-64.3,0-126.2,44.3-126.2,122.4
			c0,78.1,60.9,122.4,126.2,122.4c34.8,0,60-7.1,79.5-18.6l-3.8,34.8c-18.1,10-41.9,15.7-79.5,15.7c-79,0-160-56.7-160-154.7
			c0-99,81.9-154.7,159.5-154.7c39.5,0,69.5,9,89,20L241.4,627.5z"/>
		<path fill="#FFFFFF" d="M553.7,880.8l-33.8-81.9H396.6l-33.3,81.9h-38.6l127.1-308.1h14.3l127.1,308.1H553.7z M473.2,683.7
			c-4.8-11.9-10-27.6-14.3-41.9h-1c-3.8,14.3-10,30-14.8,41.9l-33.3,83.8h96.7L473.2,683.7z"/>
		<path fill="#FFFFFF" d="M757,883.2c-33.8,0-62.4-10.5-78.6-21.9l-4.8-39.5c21.9,17.1,51.4,29,84.8,29c35.7,0,60.9-20.5,60.9-51
			c0-30.5-17.6-47.1-57.1-60.9c-53.3-18.1-80-44.3-80-86.7c0-39.5,29.5-78.1,90.9-78.1c28.6,0,52.4,9,64.3,17.1l-7.6,31.4
			c-11.4-8.1-34.3-17.6-57.6-17.6c-34.8,0-54.3,21.4-54.3,44.3c0,24.8,16.7,40,51.9,52.4c52.9,19.1,86.7,42.9,86.7,94.8
			C856.5,848.9,819.4,883.2,757,883.2z"/>
		<path fill="#FFFFFF" d="M1073.3,610.8v270h-39v-270H933.3V577h240.9v33.8H1073.3z"/>
		<path fill="#FFFFFF" d="M1263.2,880.8V577h160.9v33.8h-121.9v100.5h101.4v33.8h-101.4V847h139v33.8H1263.2z"/>
		<path fill="#FFFFFF" d="M1537.7,880.8V577h39v270h137.6v33.8H1537.7z"/>
		<path fill="#FFFFFF" d="M85.7,1454.5c-33.8,0-62.4-10.5-78.6-21.9l-4.8-39.5c21.9,17.1,51.4,29,84.8,29c35.7,0,60.9-20.5,60.9-51
			c0-30.5-17.6-47.1-57.1-60.9c-53.3-18.1-80-44.3-80-86.7c0-39.5,29.5-78.1,90.9-78.1c28.6,0,52.4,9,64.3,17.1l-7.6,31.4
			c-11.4-8.1-34.3-17.6-57.6-17.6c-34.8,0-54.3,21.4-54.3,44.3c0,24.8,16.7,40,51.9,52.4c52.9,19.1,86.7,42.9,86.7,94.8
			C185.2,1420.2,148.1,1454.5,85.7,1454.5z"/>
		<path fill="#FFFFFF" d="M884.1,1452.1l-33.8-81.9H727l-33.3,81.9h-38.6L782.2,1144h14.3l127.1,308.1H884.1z M803.7,1255
			c-4.8-11.9-10-27.6-14.3-41.9h-1c-3.8,14.3-10,30-14.8,41.9l-33.3,83.8H837L803.7,1255z"/>
		<path fill="#FFFFFF" d="M1197.1,1452.1l-98.1-136.2h-41.4v136.2h-38.6v-303.8h87.6c44.8,0,90.5,29,90.5,83.8
			c0,40-24.8,66.7-56.7,77.6l105.2,142.4H1197.1z M1100,1182.1h-42.4v101.4h42.9c30,0,56.7-17.1,56.7-50.5
			C1157.1,1200.2,1130.5,1182.1,1100,1182.1z"/>
		<path fill="#FFFFFF" d="M1323.4,1452.1v-303.8h160.9v33.8h-121.9v100.5h101.4v33.8h-101.4v101.9h139v33.8H1323.4z"/>
		<path fill="#FFFFFF" d="M1654.7,1454.5c-33.8,0-62.4-10.5-78.6-21.9l-4.8-39.5c21.9,17.1,51.4,29,84.8,29
			c35.7,0,60.9-20.5,60.9-51c0-30.5-17.6-47.1-57.1-60.9c-53.3-18.1-80-44.3-80-86.7c0-39.5,29.5-78.1,90.9-78.1
			c28.6,0,52.4,9,64.3,17.1l-7.6,31.4c-11.4-8.1-34.3-17.6-57.6-17.6c-34.8,0-54.3,21.4-54.3,44.3c0,24.8,16.7,40,51.9,52.4
			c52.9,19.1,86.7,42.9,86.7,94.8C1754.3,1420.2,1717.1,1454.5,1654.7,1454.5z"/>
	</g>
</g>
</svg>
