<svg width="168" height="102" viewBox="0 0 168 102" fill="none" xmlns="http://www.w3.org/2000/svg">
<path d="M37.2047 22.0266C31.4193 22.0266 25.9709 17.7641 25.9709 10.9958C25.9709 4.29754 31.4193 0 37.2047 0C42.99 0 48.4384 4.29754 48.4384 10.9958C48.4384 17.7641 42.99 22.0266 37.2047 22.0266ZM37.2047 2.43574C32.8937 2.43574 28.7443 5.70439 28.7443 11.0658C28.7443 16.4342 32.8867 19.7309 37.2047 19.7309C41.4524 19.7309 45.665 16.4342 45.665 11.0658C45.665 5.69739 41.4524 2.43574 37.2047 2.43574Z" fill="#6F898E"/>
<path d="M156.766 22.0266C150.981 22.0266 145.533 17.7641 145.533 10.9958C145.533 4.29754 150.981 0 156.766 0C162.552 0 168 4.29754 168 10.9958C168 17.7641 162.552 22.0266 156.766 22.0266ZM156.766 2.43574C152.455 2.43574 148.306 5.70439 148.306 11.0658C148.306 16.4342 152.448 19.7309 156.766 19.7309C161.014 19.7309 165.227 16.4342 165.227 11.0658C165.227 5.69739 161.014 2.43574 156.766 2.43574Z" fill="#6F898E"/>
<path d="M134.18 62.013C128.394 62.013 122.946 57.7504 122.946 50.9822C122.946 44.2839 128.394 39.9863 134.18 39.9863C139.965 39.9863 145.413 44.2839 145.413 50.9822C145.406 57.7504 139.958 62.013 134.18 62.013ZM134.18 42.4221C129.869 42.4221 125.719 45.6907 125.719 51.0521C125.719 56.4206 129.862 59.7172 134.18 59.7172C138.427 59.7172 142.64 56.4206 142.64 51.0521C142.633 45.6837 138.42 42.4221 134.18 42.4221Z" fill="#6F898E"/>
<path d="M30.1204 101.999C24.335 101.999 18.8867 97.7368 18.8867 90.9685C18.8867 84.2702 24.335 79.9727 30.1204 79.9727C35.9057 79.9727 41.3541 84.2702 41.3541 90.9685C41.3541 97.7368 35.8987 101.999 30.1204 101.999ZM30.1204 82.4084C25.8094 82.4084 21.66 85.677 21.66 91.0385C21.66 96.4069 25.8024 99.7036 30.1204 99.7036C34.3681 99.7036 38.5807 96.4069 38.5807 91.0385C38.5737 85.67 34.3611 82.4084 30.1204 82.4084Z" fill="#6F898E"/>
<path d="M11.5637 22.0266C5.71515 22.0266 0 18.0301 0 11.0308C0 3.89858 5.88365 0 11.4022 0C14.2457 0 16.5838 0.664928 18.1916 1.66582L17.658 4.10156C16.1204 3.13566 13.9789 2.43574 11.7041 2.43574C7.18957 2.43574 2.78034 5.50141 2.78034 11.1008C2.78034 16.6652 7.09127 19.7309 11.7392 19.7309C13.9157 19.7309 15.65 19.2339 16.7523 18.464V13.3336H11.4724V11.1288H19.3641V19.7589C17.3139 21.3267 14.7793 22.0266 11.5637 22.0266Z" fill="#3B3A3E"/>
<path d="M73.4052 22.0611L63.1755 10.6943C61.5045 8.83253 59.6018 6.59977 58.1274 4.82896L58.0572 4.86396C58.1274 6.79575 58.1274 8.69954 58.1274 10.4634V21.6621H55.3892V0.398438H57.2919L66.8195 11.0303C68.1535 12.5281 70.0983 14.7329 71.4674 16.4267L71.5376 16.3917C71.4674 14.6279 71.4674 12.7591 71.4674 11.0933V0.398438H74.2056V22.0611H73.4052Z" fill="#3B3A3E"/>
<path d="M98.1053 3.93454C96.9679 3.19962 94.8616 2.49969 92.657 2.49969C88.1425 2.49969 83.7964 5.60036 83.7964 11.0668C83.7964 16.5332 88.0722 19.6338 92.657 19.6338C95.1003 19.6338 96.8696 19.1369 98.2387 18.332L97.9719 20.7677C96.7362 21.4326 95.1003 21.8316 92.5587 21.8316L92.327 22.6645C93.8014 22.6995 95.5005 23.9664 95.5005 25.9332C95.5005 28.1659 93.661 29.2648 91.9268 29.2648C90.9228 29.2648 90.0873 28.9638 89.3501 28.4669L89.6871 26.969C90.326 27.466 91.1264 27.704 91.9268 27.704C92.7974 27.704 93.668 27.074 93.668 26.0032C93.668 24.9043 92.664 24.3373 92.0953 24.3373C91.1264 24.3373 90.9228 23.7704 91.0562 23.2035L91.4213 21.8036C86.2046 21.3697 81.1565 17.5061 81.1565 11.0388C81.1565 4.10952 86.9068 0.210938 92.3551 0.210938C95.1284 0.210938 97.2347 0.840869 98.6038 1.61079L98.1053 3.93454Z" fill="#3B3A3E"/>
<path d="M120.165 21.6623L117.792 15.9299H109.135L106.797 21.6623H104.087L113.018 0.0976562H114.022L122.946 21.6623H120.165ZM114.521 7.86682C114.184 7.03391 113.818 5.93503 113.517 4.93413H113.446C113.18 5.93503 112.744 7.03391 112.407 7.86682L110.069 13.7322H116.859L114.521 7.86682Z" fill="#3B3A3E"/>
<path d="M129.293 21.6621V0.398438H132.031V19.2964H141.692V21.6621H129.293Z" fill="#3B3A3E"/>
<path d="M16.9488 43.9209C15.8114 43.1859 13.7051 42.486 11.5005 42.486C6.98596 42.486 2.63992 45.5867 2.63992 51.0531C2.63992 56.5195 6.91575 59.6202 11.5005 59.6202C13.9438 59.6202 15.7131 59.1232 17.0822 58.3183L16.8154 60.754C15.5446 61.454 13.8736 61.8529 11.2337 61.8529C5.68706 61.8529 0 57.8844 0 51.0251C0 44.0958 5.75025 40.1973 11.1986 40.1973C13.9719 40.1973 16.0782 40.8272 17.4473 41.5971L16.9488 43.9209Z" fill="#3B3A3E"/>
<path d="M38.8756 61.6506L36.5025 55.9182H27.8455L25.5075 61.6506H22.7974L31.7211 40.0859H32.7252L41.6489 61.6506H38.8756ZM33.2236 47.8551C32.8866 47.0222 32.5215 45.9233 32.2196 44.9224H32.1494C31.8826 45.9233 31.4473 47.0222 31.1103 47.8551L28.7723 53.7205H35.5617L33.2236 47.8551Z" fill="#3B3A3E"/>
<path d="M53.1494 61.8163C50.7763 61.8163 48.7683 61.0814 47.6309 60.2835L47.2939 57.5188C48.8315 58.7156 50.9027 59.5486 53.2477 59.5486C55.7543 59.5486 57.5236 58.1137 57.5236 55.9789C57.5236 53.8442 56.2879 52.6823 53.5145 51.7164C49.7723 50.4495 47.8977 48.6157 47.8977 45.6481C47.8977 42.8834 49.9689 40.1816 54.2798 40.1816C56.2879 40.1816 57.9589 40.8116 58.7944 41.3785L58.2608 43.5763C57.4604 43.0093 55.8525 42.3444 54.2166 42.3444C51.7733 42.3444 50.4042 43.8422 50.4042 45.4451C50.4042 47.1809 51.5767 48.2448 54.0481 49.1127C57.7623 50.4495 60.1354 52.1154 60.1354 55.748C60.1354 59.4156 57.5306 61.8163 53.1494 61.8163Z" fill="#3B3A3E"/>
<path d="M75.3571 42.7505V61.6485H72.6189V42.7505H65.5276V40.3848H82.4413V42.7505H75.3571Z" fill="#3B3A3E"/>
<path d="M88.6901 61.6485V40.3848H99.987V42.7505H91.4283V49.7847H98.5477V52.1505H91.4283V59.2827H101.188V61.6485H88.6901Z" fill="#3B3A3E"/>
<path d="M107.963 61.6485V40.3848H110.701V59.2827H120.362V61.6485H107.963Z" fill="#3B3A3E"/>
<path d="M6.01703 101.805C3.64392 101.805 1.63589 101.07 0.49848 100.272L0.161469 97.507C1.69908 98.7039 3.77029 99.5368 6.11533 99.5368C8.62185 99.5368 10.3912 98.102 10.3912 95.9672C10.3912 93.8324 9.15545 92.6706 6.38213 91.7047C2.6399 90.4378 0.76528 88.604 0.76528 85.6363C0.76528 82.8716 2.83649 80.1699 7.14743 80.1699C9.15545 80.1699 10.8265 80.7999 11.662 81.3668L11.1284 83.5646C10.328 82.9976 8.72014 82.3327 7.08424 82.3327C4.64091 82.3327 3.2718 83.8305 3.2718 85.4333C3.2718 87.1692 4.44432 88.233 6.91573 89.101C10.6299 90.4378 13.003 92.1036 13.003 95.7362C13.003 99.4038 10.3982 101.805 6.01703 101.805Z" fill="#3B3A3E"/>
<path d="M62.0732 101.637L59.7001 95.9046H51.0431L48.7051 101.637H45.995L54.9187 80.0723H55.9228L64.8465 101.637H62.0732ZM56.4283 87.8414C56.0913 87.0085 55.7262 85.9096 55.4243 84.9087H55.3541C55.0873 85.9096 54.6519 87.0085 54.3149 87.8414L51.9769 93.7068H58.7663L56.4283 87.8414Z" fill="#3B3A3E"/>
<path d="M84.0492 101.635L77.1615 92.1018H74.2548V101.635H71.5447V80.3711H77.6951C80.8406 80.3711 84.0492 82.4009 84.0492 86.2365C84.0492 89.0362 82.308 90.905 80.0682 91.6679L87.4544 101.635H84.0492ZM77.2317 82.7368H74.2548V89.8341H77.2668C79.3732 89.8341 81.2478 88.6372 81.2478 86.2995C81.2408 84.0037 79.3732 82.7368 77.2317 82.7368Z" fill="#3B3A3E"/>
<path d="M92.9167 101.635V80.3711H104.214V82.7368H95.6549V89.7711H102.774V92.1368H95.6549V99.2691H105.414V101.635H92.9167Z" fill="#3B3A3E"/>
<path d="M116.178 101.805C113.804 101.805 111.796 101.07 110.659 100.272L110.322 97.507C111.86 98.7039 113.931 99.5368 116.276 99.5368C118.782 99.5368 120.552 98.102 120.552 95.9672C120.552 93.8324 119.316 92.6706 116.543 91.7047C112.8 90.4378 110.926 88.604 110.926 85.6363C110.926 82.8716 112.997 80.1699 117.308 80.1699C119.316 80.1699 120.987 80.7999 121.822 81.3668L121.289 83.5646C120.488 82.9976 118.881 82.3327 117.245 82.3327C114.801 82.3327 113.432 83.8305 113.432 85.4333C113.432 87.1692 114.605 88.233 117.076 89.101C120.79 90.4378 123.164 92.1036 123.164 95.7362C123.171 99.4038 120.559 101.805 116.178 101.805Z" fill="#3B3A3E"/>
</svg>
