<?xml version="1.0" encoding="utf-8"?>
<!-- Generator: Adobe Illustrator 21.0.2, SVG Export Plug-In . SVG Version: 6.00 Build 0)  -->
<svg version="1.1" id="Layer_1" xmlns="http://www.w3.org/2000/svg" xmlns:xlink="http://www.w3.org/1999/xlink" x="0px" y="0px"
	 viewBox="0 0 841.9 726.4" style="enable-background:new 0 0 841.9 726.4;" xml:space="preserve">
<style type="text/css">
	.st0{fill:#333333;}
</style>
<g>
	<path class="st0" d="M651.7,63.9c6.8,0,13.7,0,20.5,0c1,0.2,2.1,0.4,3.1,0.5c7.3,0.5,14.6,1.4,21.7,3c30.5,6.9,52.1,24.6,64.1,53.6
		c7.2,17.3,10.2,35.5,11,54.2c0.4,8.1,0.1,16.2,0.1,24.3c0.1,11.6-1.5,22.9-3.8,34.2c-4.1,20.1-10.8,39.5-18.7,58.4
		c-13.4,31.7-30.1,61.7-48.5,90.7c-36.6,57.4-77.6,111.6-122.5,162.8c-21.2,24.2-43.9,47.1-68.7,67.7
		c-17.3,14.4-35.5,27.5-55.4,37.9c-17.4,9.1-35.6,15.9-55.2,18.2c-2.3,0.3-4.6,0.6-6.9,0.9c-3.3,0-6.6,0-9.9,0
		c-2.9-0.5-5.8-0.9-8.6-1.5c-11.7-2.4-22-7.8-31.2-15.2c-10.2-8.2-18.6-18.1-25.9-28.8c-10.6-15.3-18.9-31.8-26.1-48.9
		c-2.9-6.8-6.1-13.6-8-20.7c-17.6-63.8-34.9-127.6-52.3-191.5c-5.7-21-11.6-41.9-19.3-62.2c-5.2-13.8-11.1-27.3-18.9-39.8
		c-4.1-6.6-8.8-12.9-14.8-18c-3.4-2.9-7-5.2-11.3-6.6c-4.6-1.6-9.2-1.7-13.6,0.7c-3.2,1.7-6.5,3.2-9.5,5.2
		c-12.2,7.9-24.3,15.9-36.4,23.9c-1,0.6-1.9,1.3-3,2c-11-14.2-22-28.3-33-42.4c1-0.9,1.9-1.7,2.8-2.5c28.5-25.4,57.2-50.8,85.6-76.3
		c17.1-15.3,34.4-30.3,53-43.7c12.4-9,25.3-17.3,39.1-23.9c13.9-6.7,28.4-9.4,43.7-7.9c19.5,1.9,35.6,10.1,48.5,24.7
		c8.8,9.9,15,21.3,20,33.5c7.4,18.2,11.5,37.2,14.6,56.5c2.6,16.5,5.3,32.9,8,49.3c2.7,16.6,5.4,33.3,8.5,49.9
		c3.5,19.1,7.2,38.1,11.1,57.1c3.6,17.4,8,34.6,13.4,51.5c3.9,12.3,8.3,24.3,14.5,35.7c2.9,5.3,6.2,10.4,10.5,14.7
		c7.8,7.6,15.3,8.7,24.6,3.1c4.1-2.5,7.8-5.5,11.4-8.6c6.9-6.2,12.9-13.3,18.5-20.7c20.4-26.8,38-55.2,53.3-85.2
		c6.2-12.2,11.6-24.7,15.5-37.8c4.2-14.6,5.8-29.4,3.2-44.5c-3-17.7-13.8-29-31.4-32.7c-10.8-2.3-21.5-1.7-32.3-0.2
		c-11.2,1.6-22.1,4.7-32.6,8.9c-0.6,0.2-1.2,0.3-2,0.4c0.3-1.2,0.5-2,0.8-2.8c3.9-12.2,8.3-24.2,13.3-35.9
		c10.3-23.7,23-45.8,40-65.3c30.6-35,69.3-54.2,115.5-58.4C645,64.7,648.3,64.2,651.7,63.9z"/>
</g>
</svg>
